<svg xmlns="http://www.w3.org/2000/svg" width="128" height="128" viewBox="0 0 128 128" role="img" aria-label="Feedbin Summarizer icon">
  <rect x="2" y="2" width="124" height="124" rx="28" fill="#f7f8fa" stroke="#d9dde5" stroke-width="2"/>
  <g transform="translate(28 24) scale(5)">
    <path
      fill="#07ac47"
      fill-rule="evenodd"
      d="M11 0a3 3 0 0 1 3 3v10a3 3 0 0 1-3 3H3a3 3 0 0 1-3-3V3a3 3 0 0 1 3-3zM3.5 7.25a.75.75 0 0 0 0 1.5h5.25a.75.75 0 0 0 0-1.5zm0-3a.75.75 0 0 0 0 1.5H7v-1.5zm5 1.5h2a.75.75 0 0 0 0-1.5h-2z"
    />
  </g>
</svg>
