<svg xmlns="http://www.w3.org/2000/svg" width="14" height="16" viewBox="0 0 14 16" role="img" aria-label="Feedbin Summarizer toolbar icon">
  <!-- Outer rect minus inner rect via evenodd = hollow border ring -->
  <path
    fill="#c7c7c7"
    fill-rule="evenodd"
    d="M11 0a3 3 0 0 1 3 3v10a3 3 0 0 1-3 3H3a3 3 0 0 1-3-3V3a3 3 0 0 1 3-3zM11 1.5A1.5 1.5 0 0 1 12.5 3v10A1.5 1.5 0 0 1 11 14.5H3A1.5 1.5 0 0 1 1.5 13V3A1.5 1.5 0 0 1 3 1.5z"
  />
  <!-- Text lines as white fills inside the hollow center -->
  <path
    fill="#c7c7c7"
    d="M3.5 7.25a.75.75 0 0 0 0 1.5h5.25a.75.75 0 0 0 0-1.5zm0-3a.75.75 0 0 0 0 1.5H7v-1.5zm5 1.5h2a.75.75 0 0 0 0-1.5h-2z"
  />
</svg>
